<svg width="400" height="400" xmlns="http://www.w3.org/2000/svg">
  <g transform="translate(200, 200)">
    <path d="M -150,0 A 150,150 0 0 1 150,0" stroke="green" stroke-width="10" fill="none" />
    <path d="M 150,0 A 150,150 0 0 0 -150,0" stroke="green" stroke-width="10" fill="none" />
    <path d="M -80,0 A 80,80 0 0 1 80,0" stroke="red" stroke-width="10" fill="none" />
    <path d="M 80,0 A 80,80 0 0 0 -80,0" stroke="red" stroke-width="10" fill="none" />
    <polygon points="150,0 130,10 140,10" fill="green" />
    <polygon points="-150,0 -130,-10 -140,-10" fill="green" />
    <polygon points="80,0 60,10 70,10" fill="red" />
    <polygon points="-80,0 -60,-10 -70,-10" fill="red" />
  </g>
</svg>
